<mxfile host="app.diagrams.net" modified="2024-03-24T06:37:55.976Z" agent="Mozilla/5.0 (Windows NT 10.0; Win64; x64) AppleWebKit/537.36 (KHTML, like Gecko) Chrome/123.0.0.0 Safari/537.36" version="24.1.0" etag="HYRRBFKEoKC7Znn0yY9Z" type="github">
  <diagram name="Page-1" id="YewNtsDp06VD4Hj2svgx">
    <mxGraphModel>
      <root>
        <mxCell id="0" />
        <mxCell id="1" parent="0" />
      </root>
    </mxGraphModel>
  </diagram>
</mxfile>
